HIERARCHY
ROOT RootJoint
{
    OFFSET   0.000000   0.000000   0.000000
    CHANNELS 6 Xposition Yposition Zposition Xrotation Yrotation Zrotation
    JOINT pelvis_lowerback
    {
        OFFSET   0.000000   0.093605   0.000000
        CHANNELS 3 Xrotation Yrotation Zrotation
        JOINT lowerback_torso
        {
            OFFSET   0.000000   0.100000   0.000000
            CHANNELS 3 Xrotation Yrotation Zrotation
            JOINT torso_head
            {
                OFFSET   0.000000   0.282350   0.000000
                CHANNELS 3 Xrotation Yrotation Zrotation
                End Site
                {
                    OFFSET   0.000000   0.192650   0.000000
                }
            }
            JOINT rTorso_Clavicle
            {
                OFFSET  -0.001000   0.157500   0.000000
                CHANNELS 3 Xrotation Yrotation Zrotation
                JOINT rShoulder
                {
                    OFFSET  -0.117647   0.000000   0.000000
                    CHANNELS 3 Xrotation Yrotation Zrotation
                    JOINT rElbow
                    {
                        OFFSET  -0.245000   0.000000   0.000000
                        CHANNELS 3 Xrotation Yrotation Zrotation
                        JOINT rWrist
                        {
                            OFFSET  -0.240000   0.000000   0.000000
                            CHANNELS 3 Xrotation Yrotation Zrotation
                            End Site
                            {
                                OFFSET  -0.116353  -0.002500   0.000000
                            }
                        }
                    }
                }
            }
            JOINT lTorso_Clavicle
            {
                OFFSET   0.001000   0.157500   0.000000
                CHANNELS 3 Xrotation Yrotation Zrotation
                JOINT lShoulder
                {
                    OFFSET   0.117647   0.000000   0.000000
                    CHANNELS 3 Xrotation Yrotation Zrotation
                    JOINT lElbow
                    {
                        OFFSET   0.245000   0.000000   0.000000
                        CHANNELS 3 Xrotation Yrotation Zrotation
                        JOINT lWrist
                        {
                            OFFSET   0.240000   0.000000   0.000000
                            CHANNELS 3 Xrotation Yrotation Zrotation
                            End Site
                            {
                                OFFSET   0.116353  -0.002500   0.000000
                            }
                        }
                    }
                }
            }
        }
    }
    JOINT rHip
    {
        OFFSET  -0.100000  -0.051395   0.000000
        CHANNELS 3 Xrotation Yrotation Zrotation
        JOINT rKnee
        {
            OFFSET   0.000000  -0.410000   0.000000
            CHANNELS 3 Xrotation Yrotation Zrotation
            JOINT rAnkle
            {
                OFFSET   0.000000  -0.390000   0.000000
                CHANNELS 3 Xrotation Yrotation Zrotation
                JOINT rToeJoint
                {
                    OFFSET   0.000000  -0.050000   0.130000
                    CHANNELS 3 Xrotation Yrotation Zrotation
                    End Site
                    {
                        OFFSET  -0.010000   0.002000   0.060000
                    }
                }
            }
        }
    }
    JOINT lHip
    {
        OFFSET   0.100000  -0.051395   0.000000
        CHANNELS 3 Xrotation Yrotation Zrotation
        JOINT lKnee
        {
            OFFSET   0.000000  -0.410000   0.000000
            CHANNELS 3 Xrotation Yrotation Zrotation
            JOINT lAnkle
            {
                OFFSET   0.000000  -0.390000   0.000000
                CHANNELS 3 Xrotation Yrotation Zrotation
                JOINT lToeJoint
                {
                    OFFSET   0.000000  -0.050000   0.130000
                    CHANNELS 3 Xrotation Yrotation Zrotation
                    End Site
                    {
                        OFFSET   0.010000   0.002000   0.060000
                    }
                }
            }
        }
    }
}
MOTION
Frames: 11
Frame Time:   0.008333
 -2.353175   0.885772   3.829150   0.815523  10.218003   2.754708   5.398969  -1.476574  -6.989487  -2.422002  -6.925942  -0.545484   4.711464   0.502408  -2.970862   2.564733  -8.013657 -15.543550  28.689950  -0.852330  31.171971  -0.002977  55.365948  -0.000411  -0.830037   4.255337   8.492240 -12.933394 -12.638953  26.592775 -47.935101 -32.187727  -2.401009   0.014408 -48.281357   0.024017  -2.646869  -6.128805   2.946521 -29.857369  -4.008769  -6.806167  57.784653  -0.029913   0.005787 -14.095814  -9.527395   5.570298   0.006683   0.000059   0.000069 -12.804748   3.161801  -7.487522  31.626627  -0.000701  -0.000274 -18.723989   2.813125   0.271902  -1.816453   0.000689  -0.000030
 -2.352322   0.886182   3.828411   0.500774  10.225665   2.864949   5.605959  -1.913706  -7.049802  -2.456080  -7.221076  -0.664304   4.853159   0.536374  -3.039489   2.559729  -8.299533 -15.843579  29.284243  -0.893130  31.735104  -0.007554  54.637917   0.000596  -0.847125   4.370539   8.552599 -13.078056 -12.888460  26.479955 -48.657392 -32.094520  -3.109009   0.013993 -48.017573   0.024490  -2.775771  -6.371562   3.335287 -29.722762  -4.199036  -6.664689  58.903540  -0.026707   0.005820 -13.886582  -9.677361   5.532622  -0.015359   0.000059   0.000107 -12.376686   3.361153  -7.645254  31.343417  -0.001043  -0.000573 -18.540875   3.184809   0.361592  -1.878123   0.000533  -0.000330
 -2.351557   0.886695   3.827641   0.227893  10.247110   2.951596   5.768617  -2.329639  -7.082047  -2.493181  -7.509338  -0.771953   4.977463   0.568864  -3.086760   2.558716  -8.605279 -16.149968  29.855534  -0.966210  32.248645  -0.010605  53.919052   0.000990  -0.839396   4.283859   8.557618 -13.187401 -13.081528  26.320817 -49.299774 -31.936266  -3.790560   0.013316 -47.738786   0.024637  -2.900291  -6.471012   3.577578 -29.545349  -4.371707  -6.543359  59.896848  -0.023325   0.005656 -13.689789  -9.818319   5.497387  -0.014450   0.000047   0.000084 -11.982632   3.558436  -7.780096  31.028754  -0.001364  -0.000905 -18.328124   3.547441   0.441623  -1.952131   0.000405  -0.000637
 -2.350925   0.887249   3.826784  -0.011662  10.254874   3.020019   5.910509  -2.720756  -7.107371  -2.531915  -7.784765  -0.879697   5.089322   0.599960  -3.120577   2.558763  -8.912887 -16.450455  30.398140  -1.048686  32.725038  -0.012378  53.237244   0.001041  -0.820983   4.119562   8.543907 -13.284019 -13.240861  26.139875 -49.885850 -31.751131  -4.432221   0.012461 -47.464033   0.024343  -3.023561  -6.471751   3.752002 -29.353823  -4.527461  -6.436884  60.820936  -0.020225   0.005243 -13.506183  -9.950020   5.464498  -0.012683   0.000038   0.000064 -11.628259   3.744699  -7.890784  30.708065  -0.001572  -0.001141 -18.103576   3.888713   0.509953  -2.025855   0.000303  -0.000854
 -2.350438   0.887814   3.825820  -0.223311  10.235235   3.071122   6.040300  -3.086052  -7.134549  -2.569832  -8.043400  -0.990053   5.192343   0.629351  -3.147335   2.558182  -9.210895 -16.738885  30.909220  -1.130524  33.168956  -0.013183  52.596671   0.000896  -0.799117   3.930870   8.525343 -13.373913 -13.377294  25.952908 -50.424843 -31.555744  -5.030919   0.011510 -47.199716   0.023678  -3.144440  -6.419113   3.896983 -29.156811  -4.670055  -6.342598  61.687853  -0.017522   0.004580 -13.334713 -10.073053   5.433861  -0.011029   0.000030   0.000047 -11.312193   3.918554  -7.976524  30.389729  -0.001661  -0.001247 -17.878997   4.209589   0.570318  -2.087136   0.000229  -0.000939
 -2.350092   0.888375   3.824741  -0.410317  10.181579   3.105491   6.161939  -3.425472  -7.167338  -2.605957  -8.283438  -1.103383   5.288158   0.656955  -3.170283   2.556120  -9.493523 -17.012984  31.388039  -1.207236  33.583026  -0.013284  51.997494   0.000641  -0.776839   3.739685   8.506039 -13.458740 -13.497002  25.767838 -50.922255 -31.358738  -5.587614   0.010520 -46.948463   0.022733  -3.262048  -6.338603   4.027057 -28.958554  -4.801557  -6.260243  62.501404  -0.015216   0.003713 -13.174576 -10.187981   5.405337  -0.009584   0.000025   0.000034 -11.032584   4.080236  -8.037766  30.077259  -0.001647  -0.001228 -17.661076   4.511777   0.625490  -2.128424   0.000177  -0.000901
 -2.349879   0.888924   3.823544  -0.575156  10.091207   3.123748   6.277603  -3.739681  -7.207027  -2.639858  -8.504456  -1.219376   5.377589   0.682805  -3.191022   2.552208  -9.758167 -17.272249  31.835049  -1.276987  33.969164  -0.012892  51.438407   0.000330  -0.755532   3.555856   8.486730 -13.538878 -13.603718  25.588436 -51.382068 -31.164699  -6.104669   0.009531 -46.711165   0.021597  -3.375931  -6.243795   4.147668 -28.761550  -4.922955  -6.190389  63.264063  -0.013272   0.002705 -13.025054 -10.295350   5.378773  -0.008365   0.000020   0.000024 -10.787419   4.230372  -8.075453  29.772261  -0.001555  -0.001105 -17.453452   4.796710   0.677224  -2.145501   0.000140  -0.000774
 -2.349551   0.889779   3.822555  -0.754150  10.059789   3.130693   6.351970  -4.007878  -7.191612  -2.650342  -8.779737  -1.314757   5.454847   0.669790  -3.193510   2.532199  -9.994385 -17.531541  32.132271  -1.426782  34.384708  -0.013541  50.319348  -0.002716  -0.762996   3.694030   8.476136 -13.535702 -13.639894  25.475020 -51.534260 -30.730745  -6.508111   0.007898 -46.463101   0.019606  -3.480209  -6.357747   4.335990 -28.262777  -5.055729  -6.147792  63.343879  -0.010676   0.002129 -12.860145 -10.428192   5.214037  -0.056758  -0.000068   0.000131 -10.486246   4.391979  -8.125412  29.380625  -0.001713  -0.001256 -17.129777   5.216307   0.736454  -2.299085   0.000091  -0.001373
 -2.349231   0.890675   3.821543  -0.892843  10.020883   3.139597   6.387873  -4.250862  -7.167254  -2.673813  -9.043945  -1.405616   5.518512   0.657178  -3.182863   2.519249 -10.252045 -17.791347  32.428830  -1.602970  34.765947  -0.013905  49.233177  -0.005063  -0.744936   3.611007   8.405447 -13.520511 -13.635202  25.330746 -51.648125 -30.268311  -6.888207   0.006455 -46.202732   0.017879  -3.582499  -6.354760   4.410819 -27.738604  -5.160786  -6.133870  63.280587  -0.008515   0.001730 -12.710206 -10.553262   5.059128  -0.093275  -0.000121   0.000186 -10.226623   4.556824  -8.180533  28.983223  -0.001821  -0.001366 -16.771612   5.620398   0.778500  -2.493036   0.000033  -0.002011
 -2.348970   0.891546   3.820459  -1.006385   9.954212   3.145686   6.409790  -4.474560  -7.142533  -2.704821  -9.291878  -1.497103   5.574419   0.646334  -3.164680   2.509642 -10.512118 -18.046204  32.716333  -1.782352  35.120174  -0.013935  48.209054  -0.006692  -0.716496   3.448582   8.322532 -13.508482 -13.610365  25.172510 -51.743582 -29.808619  -7.240334   0.005257 -45.946703   0.016356  -3.685489  -6.269782   4.449602 -27.224338  -5.249036  -6.134876  63.192487  -0.006779   0.001451 -12.571396 -10.670557   4.914267  -0.124999  -0.000155   0.000224 -10.000891   4.714507  -8.229465  28.594844  -0.001827  -0.001343 -16.416233   5.998109   0.809661  -2.679580  -0.000012  -0.002387
 -2.348786   0.892370   3.819286  -1.102037   9.851767   3.146075   6.425998  -4.680760  -7.122349  -2.738843  -9.522178  -1.589639   5.625655   0.636641  -3.143683   2.500950 -10.764004 -18.290388  32.990001  -1.955760  35.450805  -0.013677  47.249425  -0.007751  -0.685305   3.263037   8.240600 -13.501232 -13.575314  25.011916 -51.826829 -29.364408  -7.564987   0.004277 -45.701192   0.014993  -3.787157  -6.144306   4.481100 -26.728377  -5.327094  -6.143929  63.106704  -0.005384   0.001255 -12.442165 -10.780496   4.779009  -0.153318  -0.000172   0.000252  -9.804139   4.862553  -8.267186  28.219712  -0.001739  -0.001187 -16.076535   6.351152   0.835328  -2.841771  -0.000036  -0.002487
